<svg viewBox="0 0 512 512" xmlns="http://www.w3.org/2000/svg">
  <defs>
    <linearGradient id="bg" x1="0" y1="0" x2="0" y2="1">
      <stop offset="0%" stop-color="#fef3c7" />
      <stop offset="100%" stop-color="#fde68a" />
    </linearGradient>
    <linearGradient id="flame" x1="0.5" y1="1" x2="0.5" y2="0">
      <stop offset="0%" stop-color="#7c2d12" />
      <stop offset="35%" stop-color="#c2410c" />
      <stop offset="75%" stop-color="#f59e0b" />
      <stop offset="100%" stop-color="#fde68a" />
    </linearGradient>
    <linearGradient id="core" x1="0.5" y1="1" x2="0.5" y2="0">
      <stop offset="0%" stop-color="#ea580c" />
      <stop offset="60%" stop-color="#fcd34d" />
      <stop offset="100%" stop-color="#fffbeb" />
    </linearGradient>
  </defs>
  <rect width="512" height="512" rx="96" fill="url(#bg)" />
  <g transform="translate(80 80) scale(11.25)">
    <path d="M9 24 L7 30 M16 25 L16 30 M23 24 L25 30" stroke="#3f3a36" stroke-width="1.6" stroke-linecap="round" opacity="0.9" />
    <path d="M6 22 Q16 27 26 22 L24 24.5 Q16 28 8 24.5 Z" fill="#3f3a36" opacity="0.9" />
    <path d="M7 22 Q16 25.5 25 22" stroke="#3f3a36" stroke-width="0.8" opacity="0.4" fill="none" />
    <path d="M10 22 C 7 18, 8 14, 11 12 C 9 8, 12 4, 15 3 C 14 6, 17 6, 18 5 C 21 9, 22 14, 20 18 C 22 20, 21 22, 19 22 Z" fill="url(#flame)" />
    <path d="M14 21 C 12 18, 13 14, 15 12 C 14 10, 15 8, 16 7 C 18 10, 19 14, 18 17 C 19 19, 18 21, 16 21 Z" fill="url(#core)" opacity="0.95" />
    <path d="M15.5 7 C 16.2 9, 16.5 11, 16 13" stroke="#fffbeb" stroke-width="0.7" stroke-linecap="round" opacity="0.75" fill="none" />
  </g>
</svg>
