<svg viewBox="0 0 512 512" xmlns="http://www.w3.org/2000/svg">
  <defs>
    <linearGradient id="bg" x1="0" y1="0" x2="0" y2="1">
      <stop offset="0%" stop-color="#fef3c7" />
      <stop offset="100%" stop-color="#fde68a" />
    </linearGradient>
    <radialGradient id="halo" cx="50%" cy="60%" r="55%">
      <stop offset="0%" stop-color="#d97706" stop-opacity="0.55" />
      <stop offset="55%" stop-color="#b45309" stop-opacity="0.22" />
      <stop offset="100%" stop-color="#451a03" stop-opacity="0" />
    </radialGradient>
    <linearGradient id="tA" x1="0.5" y1="1" x2="0.5" y2="0">
      <stop offset="0%" stop-color="#fef3c7" stop-opacity="0.95" />
      <stop offset="22%" stop-color="#fbbf24" stop-opacity="0.92" />
      <stop offset="55%" stop-color="#c2410c" stop-opacity="0.9" />
      <stop offset="82%" stop-color="#7f1d1d" stop-opacity="0.55" />
      <stop offset="100%" stop-color="#451a03" stop-opacity="0" />
    </linearGradient>
    <linearGradient id="tB" x1="0.5" y1="1" x2="0.5" y2="0">
      <stop offset="0%" stop-color="#d97706" stop-opacity="0.78" />
      <stop offset="55%" stop-color="#b91c1c" stop-opacity="0.55" />
      <stop offset="100%" stop-color="#7f1d1d" stop-opacity="0" />
    </linearGradient>
    <radialGradient id="hot" cx="50%" cy="70%" r="50%">
      <stop offset="0%" stop-color="#fffbeb" stop-opacity="1" />
      <stop offset="45%" stop-color="#fde68a" stop-opacity="0.85" />
      <stop offset="100%" stop-color="#d97706" stop-opacity="0" />
    </radialGradient>
    <filter id="soft" x="-30%" y="-30%" width="160%" height="160%">
      <feGaussianBlur stdDeviation="0.7" />
    </filter>
    <filter id="ember" x="-100%" y="-100%" width="300%" height="300%">
      <feGaussianBlur stdDeviation="0.45" />
    </filter>
  </defs>
  <rect width="512" height="512" rx="96" fill="url(#bg)" />
  <g transform="translate(64 64) scale(6)">
    <g opacity="0.9">
      <path d="M18 48 L12 60 M32 50 L32 60 M46 48 L52 60" stroke="#3f3a36" stroke-width="2.4" stroke-linecap="round" />
      <path d="M10 44 Q32 54 54 44 L50 48 Q32 56 14 48 Z" fill="#3f3a36" />
      <path d="M12 44 Q32 50 52 44" stroke="#3f3a36" stroke-width="1" opacity="0.45" fill="none" />
    </g>
    <ellipse cx="32" cy="32" rx="22" ry="26" fill="url(#halo)" />
    <g filter="url(#soft)">
      <path d="M16 44 C 10 34, 14 22, 22 14 C 26 8, 32 4, 36 8 C 44 16, 46 28, 44 36 C 48 42, 44 44, 38 44 Z" fill="url(#tB)" />
      <path d="M24 44 C 20 34, 26 24, 28 16 C 29 10, 29 6, 30 4 C 32 8, 34 14, 36 22 C 38 30, 38 38, 36 44 Z" fill="url(#tA)" />
      <path d="M14 44 C 12 38, 12 28, 16 22 C 18 18, 20 18, 20 22 C 22 28, 22 36, 22 44 Z" fill="url(#tB)" />
      <path d="M40 44 C 42 38, 44 30, 46 24 C 47 22, 48 22, 48 26 C 48 34, 46 40, 44 44 Z" fill="url(#tB)" />
    </g>
    <ellipse cx="32" cy="38" rx="5" ry="7" fill="url(#hot)" />
    <g filter="url(#ember)">
      <circle cx="22" cy="6" r="1.1" fill="#fbbf24" opacity="0.95" />
      <circle cx="38" cy="10" r="0.9" fill="#fde68a" opacity="0.9" />
      <circle cx="44" cy="3" r="0.7" fill="#f59e0b" opacity="0.85" />
    </g>
  </g>
</svg>
